<svg id="gmmarker" x="0px" y="0px" width="35px" height="35px" viewBox="0 0 500 500" xmlns="http://www.w3.org/2000/svg">             <defs>             <filter id="f1" x="-50%" y="-50%" width="200%" height="200%">             <feOffset result="offOut" in="SourceAlpha" dx="0" dy="0" />             <feGaussianBlur result="blurOut" in="offOut" stdDeviation="30" />             <feBlend in="SourceGraphic" in2="blurOut" mode="normal" />             </filter>             </defs>             <path fill="#92cee6" fill-opacity="0.5" d="M402.667,199.409c0,78.787-131.074,168.351-142.722,256.351C250,368.324,117.356,278.196,117.356,199.409                             c0-78.786,63.869-142.655,142.656-142.655C338.798,56.754,402.667,120.623,402.667,199.409z" filter="url(#f1)"></path>             <path fill="none" stroke="rgba(0,0,0,0.6)" stroke-width="20" stroke-linecap="square" stroke-linejoin="bevel" stroke-miterlimit="10" d="                             M402.667,199.409c0,78.787-131.074,168.351-142.722,256.351C250,368.324,117.356,278.196,117.356,199.409                             c0-78.786,63.869-142.655,142.656-142.655C338.798,56.754,402.667,120.623,402.667,199.409z"></path>             </svg>