<?xml version="1.0" encoding="utf-8"?>
<!-- Generator: Adobe Illustrator 22.0.0, SVG Export Plug-In . SVG Version: 6.00 Build 0)  -->
<svg version="1.1" id="logo" xmlns="http://www.w3.org/2000/svg" xmlns:xlink="http://www.w3.org/1999/xlink" x="0px" y="0px"
	 viewBox="0 0 3022 576" style="enable-background:new 0 0 3022 576;" xml:space="preserve">
<style type="text/css">
	.st0{fill:#D4164E;}
</style>
<g>
	<path class="st0" d="M713.1,272.6c-0.9,6.9-2.9,19.7-6.2,38.2l-6.8,41.6c-27.2,6.6-53.8,9.9-79.8,9.9c-18.9,0-35.4-1.9-49.6-5.7
		c-16.8-4.5-31.9-12.5-45.2-23.9c-13.7-11.8-23.7-25.7-29.9-41.8c-7.5-18.9-11.2-40-11.2-63.4c0-21.5,3.6-42.2,10.9-62.1
		c7.3-19.9,18-36.3,32.2-49.3c14.2-12.9,30-21.6,47.3-26c17.3-4.4,36.5-6.6,57.4-6.6c12.3,0,24.7,0.6,37.2,1.9
		c12.5,1.3,27.9,4.1,46.3,8.4l0.5,6c0.5,6.2,0.9,12.6,1.2,19.1c0.3,6.5,0.8,16.8,1.7,30.8l1.6,23.1c-24.8-8.7-46.7-13-65.8-13
		c-13.7,0-25.7,2.6-36,7.9c-10.3,5.3-17.9,12.9-22.9,22.9c-4.9,10-7.4,21.5-7.4,34.7c0,13.3,2.2,24.5,6.6,33.5
		c4.4,9,11.5,15.8,21.2,20.3c9.7,4.5,20.4,6.8,32,6.8c5.9,0,12.9-0.6,20.9-1.8c8.1-1.2,15.1-2.6,21.1-4
		C696.3,278.6,703.9,276.1,713.1,272.6z"/>
	<path class="st0" d="M915.5,83.4c21.5,0,42.1,3.3,62,9.9c19.8,6.6,36.6,16.1,50.3,28.5c13.7,12.4,23.8,26.9,30.3,43.4
		c6.5,16.5,9.7,34.4,9.7,53.4c0,18.5-2.9,36.2-8.7,52.9c-5.8,16.7-15.6,32.4-29.5,47c-13.9,14.6-31.5,25.6-52.9,32.9
		c-21.4,7.3-44.1,10.9-68,10.9c-22,0-43.1-3.2-63.4-9.6c-20.3-6.4-37.2-15.8-50.8-28.1c-13.6-12.3-23.8-27-30.7-44.2
		c-6.8-17.2-10.3-35.2-10.3-54.1c0-18.9,3.3-36.9,10-54.1c6.7-17.2,17.2-32.6,31.7-46.3c14.5-13.7,32.4-24.2,53.7-31.6
		C870.3,87.1,892.5,83.4,915.5,83.4z M913.7,159.8c-11.1,0-21,2.9-29.6,8.6c-8.7,5.7-15.2,14.1-19.6,25.1c-4.4,11-6.6,23-6.6,36
		c0,19.1,4.8,33.7,14.3,43.8c9.5,10.1,21.5,15.2,35.9,15.2c10.9,0,20.7-2.9,29.4-8.7c8.7-5.8,15.2-14.4,19.6-25.7
		c4.4-11.3,6.6-23.5,6.6-36.5c0-10.7-1.7-20.4-5.2-29.1c-3.5-8.7-9.1-15.6-17-20.8C933.5,162.4,924.3,159.8,913.7,159.8z"/>
	<path class="st0" d="M1107.1,355.5l7.3-125.3l4.1-98l0.5-42.1c19.1,0.3,35.9,0.5,50.4,0.5c16.5,0,32.5-0.2,48.1-0.5l-1.8,34.6
		c5.4-6.9,9.9-12.3,13.6-16c3.7-3.7,8.3-7.3,13.6-10.7c5.4-3.4,10.9-6.1,16.6-8.1c5.7-2,12.1-3.6,19.2-4.8
		c7.1-1.2,14.6-1.8,22.4-1.8c8.8,0,17,0.7,24.4,2.2c7.4,1.5,13.9,3.3,19.2,5.6c5.4,2.3,10,4.9,14,7.8c4,2.9,7.5,6.3,10.5,10
		c3,3.7,6.5,9.1,10.5,16.2c7.6-11.1,15.7-19.5,24.2-25.2c8.5-5.7,18.1-9.9,29-12.6c10.8-2.7,22-4,33.4-4c15.1,0,29.3,2.2,42.6,6.5
		c13.3,4.3,24.3,11.8,32.9,22.5c8.6,10.7,12.9,24.5,12.9,41.5c0,8-0.6,20-1.7,36.1c-1.1,16.1-2.7,43.8-4.7,83
		c-2,39.2-3.1,66.8-3.3,82.5c-15.9-0.3-31.3-0.5-46.2-0.5c-18.2,0-37.2,0.2-57.1,0.5c1.7-22,3.5-49.6,5.4-82.8
		c1.8-33.2,2.8-56.2,2.8-69c0-11.2-1.3-19.6-3.9-25.1c-2.6-5.5-5.9-9.3-10-11.3c-4.1-2-8.6-3-13.4-3c-5.2,0-9.7,1-13.5,2.9
		c-4.2,2.1-7.8,5.3-10.9,9.7c-4.2,5.8-7.6,13-10.2,21.7c-2.1,6.8-3.7,17.2-5,31.2c-1.2,14.2-2.2,32.9-2.9,56.1l-2.1,69.7
		c-18.5-0.3-35.2-0.5-50.1-0.5c-15.2,0-33.2,0.2-53.8,0.5c1.6-15.4,3.4-41.3,5.5-77.7c2.1-36.4,3.2-60.7,3.2-73
		c0-10.4-1-18.2-3.1-23.4c-2.1-5.2-5-9.4-8.7-12.5c-3.7-3.1-8.7-4.7-14.9-4.7c-6.8,0-12.6,2-17.7,6c-5,4-9.3,9.7-12.9,17.2
		c-3.6,7.5-6.1,17.7-7.5,30.8c-1.5,13.1-2.8,33.1-4,59.9c-1.2,26.9-2,52.7-2.3,77.5c-21-0.3-38-0.5-51-0.5
		C1146.3,355,1128.4,355.2,1107.1,355.5z"/>
	<path d="M1601.4,355.5c4.8-54.6,9.1-118.2,12.7-190.8c3.6-72.6,5.4-127.3,5.4-164c20.1,0.3,38.9,0.5,56.4,0.5
		c17.2,0,34-0.2,50.4-0.5c-3.8,27-6.5,56.7-8.3,89.1c15.8-2.6,27.9-4.3,36.4-5.2c8.5-0.9,16.9-1.3,25.2-1.3
		c26.7,0,49.5,4.2,68.5,12.6c19,8.4,34.4,22.6,46.2,42.5c11.9,19.9,17.8,44.3,17.8,73c0,28.8-5.6,55.2-16.9,79.4
		s-26.3,42.1-45.2,53.8c-18.9,11.7-40.9,17.5-66,17.5c-9.4,0-18.3-1-26.8-2.9c-8.5-1.9-16.2-4.7-23.1-8.4
		c-6.9-3.7-12.7-7.7-17.4-11.8c-4.7-4.2-10-9.8-16.1-16.9l-0.9,33.3c-18.6-0.3-34.1-0.5-46.6-0.5
		C1643,355,1625.7,355.2,1601.4,355.5z M1710.9,162.9c-1.3,28.8-1.9,46.4-1.9,52.8c0,16.3,1.4,29.2,4.3,38.7
		c2.9,9.5,8.3,17.2,16.4,22.9s17.1,8.6,27.2,8.6c10.4,0,19.5-2.9,27.3-8.6c7.8-5.7,13.7-14.1,17.8-25.1c4.1-11,6.1-22.6,6.1-34.7
		c0-18.2-4.9-32.8-14.7-43.8c-9.8-11-23.9-16.5-42.3-16.5C1739.5,157.2,1726.2,159.1,1710.9,162.9z"/>
	<path d="M2208,277c-2.3,10.4-6.6,35.5-13,75.4c-20.1,4-37,6.6-50.7,7.9c-13.7,1.3-27.5,1.9-41.6,1.9c-20.6,0-39.6-1.4-56.9-4.3
		c-17.3-2.9-32.3-7.9-44.8-15.2c-12.6-7.3-23.1-16.3-31.6-27.1c-8.5-10.8-14.9-23.7-19.4-38.6c-4.4-14.9-6.6-30.2-6.6-46
		c0-22.2,4.4-43.8,13.3-65c8.8-21.2,20.2-37.8,34.2-49.7c13.9-11.9,30-20.4,48.2-25.4c18.2-5,36.8-7.5,55.9-7.5
		c19.8,0,38.6,2.3,56.5,6.9c17.9,4.6,33.1,12.6,45.6,24s21.4,24.3,26.6,38.7c5.3,14.4,7.9,29.9,7.9,46.5c0,9.9-1.1,20.9-3.4,33
		l-182.2,0.3c-0.2,2.8-0.3,5.3-0.3,7.5c0,18.6,6.7,32.4,20,41.2c13.3,8.8,29.6,13.2,48.9,13.2c11.4,0,24.5-1.3,39.1-4
		C2168.5,288,2186.5,283.5,2208,277z M2048.2,193.1h85.8c0.2-2.9,0.3-5.5,0.3-7.5c0-9-1.6-16.7-4.8-23.1c-3.2-6.4-7.8-11.1-13.8-14
		c-6-2.9-12.7-4.4-20.1-4.4c-5.2,0-10.2,0.8-15.1,2.5c-4.9,1.6-9.2,4.1-13.1,7.3c-3.9,3.2-7.1,6.9-9.7,11c-2.6,4.2-4.5,8.2-5.7,12.1
		C2050.6,180.8,2049.4,186.2,2048.2,193.1z"/>
	<path d="M2265.5,355.5l8-115.4l2.6-66.3c0.2-12,0.3-24.2,0.3-36.6c0-12.6-0.2-28.3-0.5-47c21,0.3,37.6,0.5,49.9,0.5
		c14.4,0,30.9-0.2,49.6-0.5l-1.1,29.4c6.8-7.6,12.3-13.3,16.6-17c4.3-3.7,9.3-7.1,14.8-10.1c5.5-3,11.4-5.3,17.4-6.8
		c6.1-1.5,12.4-2.2,19-2.2c6.2,0,13.2,0.9,20.8,2.6c0.2,18.9,0.6,34.5,1.3,46.8l1.8,40c-9.5-2.8-18.4-4.2-26.7-4.2
		c-10.4,0-19.3,1.5-26.9,4.5c-7.5,3-14.2,7.6-20,13.8c-5.8,6.2-10.4,13.8-13.9,23c-3.5,9.2-5.9,23.7-7.3,43.7
		c-1.4,19.9-2.1,42.7-2.1,68.4c0,9,0.3,20.2,1,33.5c-16.8-0.3-33.7-0.5-50.7-0.5C2302.8,355,2284.7,355.2,2265.5,355.5z"/>
	<path d="M2494.2,355.5l8-115.4l2.6-66.3c0.2-12,0.3-24.2,0.3-36.6c0-12.6-0.2-28.3-0.5-47c21,0.3,37.6,0.5,49.9,0.5
		c14.4,0,30.9-0.2,49.6-0.5l-1.1,29.4c6.8-7.6,12.3-13.3,16.6-17c4.3-3.7,9.3-7.1,14.8-10.1c5.5-3,11.4-5.3,17.4-6.8
		c6.1-1.5,12.4-2.2,19-2.2c6.2,0,13.2,0.9,20.8,2.6c0.2,18.9,0.6,34.5,1.3,46.8l1.8,40c-9.5-2.8-18.4-4.2-26.7-4.2
		c-10.4,0-19.3,1.5-26.9,4.5c-7.5,3-14.2,7.6-20,13.8c-5.8,6.2-10.4,13.8-13.9,23c-3.5,9.2-5.9,23.7-7.3,43.7
		c-1.4,19.9-2.1,42.7-2.1,68.4c0,9,0.3,20.2,1,33.5c-16.8-0.3-33.7-0.5-50.7-0.5C2531.5,355,2513.4,355.2,2494.2,355.5z"/>
	<path d="M2701.6,474.3c-5.4-41.4-9-67.1-10.9-77.2c10.9,5.2,20.6,8.7,29,10.7c8.4,1.9,15.7,2.9,21.7,2.9c6.4,0,12.4-0.9,18.1-2.6
		c5.6-1.7,10.1-3.9,13.4-6.4c3.3-2.5,6.9-6.4,10.8-11.6c3.9-5.2,6.8-9.7,8.7-13.4c1.9-3.7,3.8-9.1,5.7-16l-48.9-147.9l-41.9-122.7
		c25.8,0.3,44,0.5,54.4,0.5c12.1,0,28.7-0.2,49.7-0.5c3.3,13.3,9.4,36.4,18.3,69.1c8.9,32.7,15.4,58.4,19.4,76.9
		c2.3,10.2,4.4,23.2,6.5,39l5.5-20.8c1.7-5.5,3.7-11.9,6-19c2.3-7.1,5.1-15.6,8.6-25.5l16.9-47.3l28-72.5c21.6,0.3,38,0.5,49.1,0.5
		c9.7,0,27-0.2,51.9-0.5l-50.1,113.3l-90.6,210.3c-5.9,11.8-11.5,21.1-16.9,28.1c-5,6.2-10.5,11.7-16.4,16.4
		c-5.5,4.3-11.5,8-17.9,10.9c-8.7,4-18.2,7.1-28.6,9.4c-11.4,2.4-23.1,3.6-34.8,3.6c-5.4,0-12.5-0.4-21.3-1.2
		c-8.8-0.8-16-1.6-21.5-2.3C2717.8,477.8,2710.6,476.4,2701.6,474.3z"/>
</g>
<path id="path3541" class="st0" d="M241.9,156c-17.6-47.6-63.8-82.2-117.4-82.2C55.7,73.8,0,130.3,0,199C0,265,51.1,321.4,116,325.6
	C106.9,194.8,219.4,157.1,241.9,156z"/>
<path id="path3543" class="st0" d="M270.5,183.2c-68.4,0-124.1,55.7-124.1,124.5c0,68.8,55.7,124.5,124.1,124.5
	c68.8,0,124.5-55.7,124.5-124.5C395,238.9,339.3,183.2,270.5,183.2L270.5,183.2z"/>
<path id="path3545" class="st0" d="M375.6,193.4C387.9,174,395,151.1,395,126C395,57.3,339.3,1.9,270.5,1.9c-39.9,0-75.1,19-98,48.3
	c53.6,16.2,87.5,60.3,101.2,103C287.8,152.5,332.6,154.6,375.6,193.4z"/>
<g>
	<g>
		<path d="M1637.2,530.5l38.6-6.1c3.4,8.1,7.7,13.9,12.8,17.3c5.1,3.4,12,5.1,20.8,5.1c9.1,0,16.3-2,21.8-6.1
			c3.8-2.8,5.7-6.1,5.7-10.1c0-2.7-1-5.1-2.9-7.2c-2-2-7.5-4.5-16.5-7.5c-24-8-38.9-14.2-44.7-18.9c-9-7.2-13.5-16.6-13.5-28.3
			c0-11.7,4.3-21.7,13-30.1c12.1-11.7,30.1-17.6,54-17.6c19,0,33.3,3.5,43,10.4c9.7,6.9,15.9,16.3,18.4,28.2l-36.8,6.4
			c-1.9-5.4-5.1-9.4-9.4-12.1c-5.9-3.6-13-5.4-21.4-5.4c-8.3,0-14.3,1.4-18,4.2c-3.7,2.8-5.5,6-5.5,9.6c0,3.7,1.8,6.8,5.5,9.2
			c2.3,1.5,9.8,4.1,22.3,7.8c19.4,5.6,32.4,11.2,39,16.6c9.2,7.7,13.9,16.9,13.9,27.7c0,14-5.9,26.1-17.6,36.3
			c-11.7,10.3-28.3,15.4-49.7,15.4c-21.3,0-37.7-3.9-49.3-11.7C1649.2,555.6,1641.4,544.6,1637.2,530.5z"/>
		<path d="M1810.3,453.9l6.1-29.5h19.4l4.9-23.6l45.6-27.5l-10.7,51h24.3l-6.1,29.5h-24.4l-12.9,61.7c-2.3,11.2-3.5,17.6-3.5,19.1
			c0,3.1,1,5.4,2.9,7.1c1.9,1.7,5.5,2.6,10.5,2.6c1.8,0,6.1-0.3,13.2-1l-6.2,29.5c-6.8,1.4-13.9,2.1-21.1,2.1
			c-14.1,0-24.3-2.7-30.7-8.1s-9.6-12.9-9.6-22.5c0-4.5,1.7-15,5.1-31.3l12.3-59.2H1810.3z"/>
		<path d="M1925.4,424.4h39.8l-18.2,87.2c-2.2,10.5-3.3,17-3.3,19.6c0,4.3,1.6,7.9,4.7,11c3.1,3.1,7.2,4.6,12.1,4.6
			c3.5,0,7-0.7,10.4-2c3.4-1.3,6.9-3.4,10.5-6.1c3.6-2.7,6.8-5.8,9.7-9.4c2.9-3.5,5.5-8.1,8-13.9c1.8-4.3,3.7-11.2,5.7-20.8
			l14.7-70.2h39.8l-30.8,147.3h-37.2l4.2-20c-16.3,15.6-34,23.4-53.1,23.4c-12.1,0-21.6-3.5-28.6-10.4c-6.9-6.9-10.4-16.2-10.4-27.9
			c0-5.1,1.6-15.2,4.7-30.4L1925.4,424.4z"/>
		<path d="M2204.5,571.7h-37.7l3.3-16c-7.2,6.9-14.3,11.9-21.3,14.9c-7,3-14.9,4.5-23.6,4.5c-15.3,0-27.6-5.2-37.1-15.6
			c-9.5-10.4-14.2-25.8-14.2-46.1c0-23.6,6.7-44.9,20-63.9c13.3-19,30.9-28.6,52.8-28.6c19.8,0,34.6,7.9,44.5,23.6l16-76.1h39.8
			L2204.5,571.7z M2112.5,511.8c0,10.5,2.7,18.8,8,24.7c5.3,5.9,11.9,8.9,19.6,8.9c7.2,0,13.9-2.5,20.2-7.4
			c6.2-4.9,11.2-12.5,15-22.7c3.7-10.2,5.6-19.9,5.6-29.3c0-10.6-2.9-19.2-8.6-25.8c-5.7-6.6-12.3-9.8-19.8-9.8
			c-11.7,0-21.2,6.5-28.7,19.4C2116.3,482.7,2112.5,496.7,2112.5,511.8z"/>
		<path d="M2272.7,424.4h39.8l-30.8,147.3h-39.8L2272.7,424.4z M2284.4,368.4h39.8l-7.5,36.1h-39.8L2284.4,368.4z"/>
		<path d="M2326.7,510.5c0-27.3,7.7-49,23.1-65.3c15.4-16.2,35.6-24.3,60.7-24.3c21.7,0,38.7,6,50.9,18c12.2,12,18.3,28.1,18.3,48.3
			c0,23.9-7.6,44.5-22.9,61.9c-15.3,17.4-35.7,26.1-61.3,26.1c-13.9,0-26.2-2.8-36.9-8.3c-10.7-5.5-18.7-13.4-24-23.6
			C2329.3,533.1,2326.7,522.2,2326.7,510.5z M2440.1,482.1c0-9.4-2.8-17-8.3-22.7c-5.5-5.7-12.6-8.5-21.3-8.5
			c-8.6,0-16.2,2.7-22.9,8c-6.7,5.3-11.8,13-15.5,23.2c-3.7,10.1-5.5,19.4-5.5,27.9c0,10.5,2.9,18.9,8.6,25.1
			c5.7,6.2,12.9,9.3,21.6,9.3c10.9,0,20.1-4.7,27.5-14C2434.9,517.1,2440.1,501,2440.1,482.1z"/>
		<path d="M2489.2,530.5l38.6-6.1c3.4,8.1,7.7,13.9,12.8,17.3c5.1,3.4,12,5.1,20.8,5.1c9.1,0,16.3-2,21.8-6.1
			c3.8-2.8,5.7-6.1,5.7-10.1c0-2.7-1-5.1-2.9-7.2c-2-2-7.5-4.5-16.5-7.5c-24-8-38.9-14.2-44.7-18.9c-9-7.2-13.5-16.6-13.5-28.3
			c0-11.7,4.3-21.7,13-30.1c12.1-11.7,30.1-17.6,54-17.6c19,0,33.3,3.5,43,10.4c9.7,6.9,15.9,16.3,18.4,28.2l-36.8,6.4
			c-1.9-5.4-5.1-9.4-9.4-12.1c-5.9-3.6-13-5.4-21.4-5.4c-8.3,0-14.3,1.4-18,4.2c-3.7,2.8-5.5,6-5.5,9.6c0,3.7,1.8,6.8,5.5,9.2
			c2.3,1.5,9.8,4.1,22.3,7.8c19.4,5.6,32.4,11.2,39,16.6c9.2,7.7,13.9,16.9,13.9,27.7c0,14-5.9,26.1-17.6,36.3
			c-11.7,10.3-28.3,15.4-49.7,15.4c-21.3,0-37.7-3.9-49.3-11.7C2501.3,555.6,2493.4,544.6,2489.2,530.5z"/>
	</g>
</g>
</svg>
